<svg xmlns="http://www.w3.org/2000/svg" width="18" height="18" viewBox="0 0 18 18"><defs><mask id="hndqb" width="2" height="2" x="-1" y="-1"><path fill="#fff" d="M6 6h6v6H6z"/><path d="M9 6a3 3 0 1 1 0 6 3 3 0 0 1 0-6z"/></mask><filter id="hndqa" width="40" height="40" x="-11" y="-11" filterUnits="userSpaceOnUse"><feOffset in="SourceGraphic" result="FeOffset1023Out"/><feGaussianBlur in="FeOffset1023Out" result="FeGaussianBlur1024Out" stdDeviation="2.8 2.8"/></filter></defs><g><g><g filter="url(#hndqa)"><path fill="none" d="M9 6a3 3 0 1 1 0 6 3 3 0 0 1 0-6z" mask="url(&quot;#hndqb&quot;)"/><path fill="#4fa037" fill-opacity=".61" d="M9 6a3 3 0 1 1 0 6 3 3 0 0 1 0-6z"/></g><path fill="#27b24b" d="M9 6a3 3 0 1 1 0 6 3 3 0 0 1 0-6z"/></g></g></svg>